:FULLY-SPECIFIED
:FORCE-ALL-JOINTS-BE-3DOF
:DEGREES
34
root 5.98444 16.8966 -28.0789 9.09371 -1.88325 -2.29315
lfemur -18.3945 1.3449 -18.4705
ltibia 31.5005 -0 0
lfoot -34.365 4.17022 0.0355763
ltoes 35.0209 -0 0
rfemur -15.6213 6.20736 18.2286
rtibia 28.775 -0 0
rfoot -25.9539 -16.7557 0.0141743
rtoes 15.5801 -0 0
lowerback -4.61095 2.47878 -1.75678
upperback -1.90735 3.36975 1.42771
thorax 0.428119 1.7036 2.62409
lowerneck -9.01348 -1.62844 2.21172
upperneck -2.23936 -2.38958 0.00721794
head 0.775163 -1.20525 -0.450451
lclavicle 2.89001e-14 1.01664e-14 0
lhumerus -38.9537 -11.8241 92.8921
lradius 34.137 -0 0
lwrist 3.92793 0 0
lhand -10.4935 4.42562 -0.00184278
lfingers 7.12502 0 0
lthumb 13.76 31.966 -0.00178825
rclavicle 2.89001e-14 1.01664e-14 0
rhumerus -38.4542 -5.12045 -83.4984
rradius 37.1025 -0 0
rwrist 10.0254 0 0
rhand -25.4642 -18.3242 0.00815352
rfingers 7.12502 0 0
rthumb -0.645759 -46.5627 0.00797842
35
root 5.97729 16.8968 -28.0795 8.70716 -1.78961 -2.19369
lfemur -17.6241 1.31033 -17.6698
ltibia 30.1953 -0 0
lfoot -32.8925 3.95827 0.0295958
ltoes 33.5609 -0 0
rfemur -14.9146 6.00884 17.4493
rtibia 27.5068 -0 0
rfoot -24.8296 -16.1118 0.0157737
rtoes 14.8561 -0 0
lowerback -4.43312 2.3639 -1.64958
upperback -1.81861 3.21214 1.3527
thorax 0.433215 1.6236 2.48115
lowerneck -8.62347 -1.5544 2.11428
upperneck -2.15486 -2.28124 0.0188321
head 0.737736 -1.15046 -0.426551
lclavicle 2.54019e-14 9.72151e-15 0
lhumerus -37.3182 -11.8393 89.991
lradius 32.719 -0 0
lwrist 3.76563 0 0
lhand -10.042 4.18652 -0.00218125
lfingers 7.12502 0 0
lthumb 13.165 30.5795 -0.00212524
rclavicle 2.54019e-14 9.72151e-15 0
rhumerus -36.8442 -5.07528 -80.7805
rradius 35.5716 -0 0
rwrist 9.59273 0 0
rhand -24.4227 -17.5058 0.00886005
rfingers 7.12502 0 0
rthumb -0.654986 -44.6592 0.00876015
36
root 5.97015 16.897 -28.0802 8.38804 -1.70886 -2.11035
lfemur -16.9887 1.28561 -17.0021
ltibia 29.1069 -0 0
lfoot -31.6463 3.77567 0.0237396
ltoes 32.3286 -0 0
rfemur -14.3248 5.84542 16.8017
rtibia 26.4402 -0 0
rfoot -23.887 -15.5843 0.0172898
rtoes 14.2312 -0 0
lowerback -4.28905 2.26705 -1.55314
upperback -1.7437 3.07898 1.28589
thorax 0.441688 1.55589 2.35383
lowerneck -8.29935 -1.49229 2.03452
upperneck -2.08776 -2.19056 0.0326107
head 0.705732 -1.10457 -0.40555
lclavicle 2.19036e-14 9.27661e-15 0
lhumerus -35.9413 -11.8315 87.371
lradius 31.5389 -0 0
lwrist 3.63761 0 0
lhand -9.66845 3.98056 -0.00248174
lfingers 7.12502 0 0
lthumb 12.669 29.4099 -0.00242608
rclavicle 2.19036e-14 9.27661e-15 0
rhumerus -35.4848 -5.02298 -78.3757
rradius 34.2831 -0 0
rwrist 9.23294 0 0
rhand -23.5546 -16.8238 0.0095215
rfingers 7.12502 0 0
rthumb -0.66427 -43.0445 0.00948978
37
root 5.963 16.8973 -28.0809 8.15637 -1.64506 -2.04769
lfemur -16.5289 1.27282 -16.5085
ltibia 28.3082 -0 0
lfoot -30.7084 3.63238 0.018208
ltoes 31.4062 -0 0
rfemur -13.8868 5.73096 16.3262
rtibia 25.6419 -0 0
rfoot -23.185 -15.2104 0.018732
rtoes 13.7369 -0 0
lowerback -4.18936 2.19332 -1.47039
upperback -1.68656 2.9772 1.22948
thorax 0.455091 1.50399 2.2464
lowerneck -8.06065 -1.44543 1.97767
upperneck -2.04311 -2.1225 0.0493166
head 0.680741 -1.07008 -0.388255
lclavicle 1.84053e-14 8.83171e-15 0
lhumerus -34.918 -11.8145 85.3102
lradius 30.6802 -0 0
lwrist 3.55396 0 0
lhand -9.39624 3.81657 -0.00274319
lfingers 7.12502 0 0
lthumb 12.302 28.5317 -0.00268808
rclavicle 1.84053e-14 8.83171e-15 0
rhumerus -34.4689 -4.97284 -76.5292
rradius 33.3255 -0 0
rwrist 8.96817 0 0
rhand -22.9176 -16.3195 0.0101376
rfingers 7.12502 0 0
rthumb -0.674643 -41.8373 0.0101595
38
root 5.95585 16.8975 -28.0815 8.03191 -1.60204 -2.01017
lfemur -16.2846 1.2742 -16.2296
ltibia 27.8702 -0 0
lfoot -30.1576 3.53789 0.013155
ltoes 30.8733 -0 0
rfemur -13.6344 5.67919 16.0625
rtibia 25.1765 -0 0
rfoot -22.7813 -15.0272 0.0201171
rtoes 13.4035 -0 0
lowerback -4.1446 2.14771 -1.40387
upperback -1.65105 2.91355 1.18543
thorax 0.47512 1.47128 2.16271
lowerneck -7.92649 -1.41708 1.94892
upperneck -2.02602 -2.0819 0.0698523
head 0.664286 -1.04941 -0.375418
lclavicle 1.49071e-14 8.38682e-15 0
lhumerus -34.3409 -11.8077 84.0949
lradius 30.2244 -0 0
lwrist 3.5248 0 0
lhand -9.24835 3.70294 -0.00296686
lfingers 7.12502 0 0
lthumb 12.093 28.0171 -0.00291115
rclavicle 1.49071e-14 8.38682e-15 0
rhumerus -33.8867 -4.93584 -75.4887
rradius 32.7852 -0 0
rwrist 8.82014 0 0
rhand -22.5682 -16.0334 0.0107101
rfingers 7.12502 0 0
rthumb -0.687227 -41.1524 0.0107643
39
root 5.94871 16.8977 -28.0822 8.0354 -1.58371 -2.0024
lfemur -16.2976 1.29218 -16.2072
ltibia 27.8655 -0 0
lfoot -30.0736 3.50188 0.00870056
ltoes 30.8098 -0 0
rfemur -13.603 5.70423 16.0518
rtibia 25.1098 -0 0
rfoot -22.7345 -15.0735 0.0214644
rtoes 13.2612 -0 0
lowerback -4.16598 2.13536 -1.35597
upperback -1.64112 2.89499 1.15564
thorax 0.503721 1.46125 2.10646
lowerneck -7.91689 -1.4106 1.95375
upperneck -2.04197 -2.07381 0.0953503
head 0.657924 -1.04511 -0.367774
lclavicle 1.14088e-14 7.94192e-15 0
lhumerus -34.3026 -11.8287 83.9884
lradius 30.2546 -0 0
lwrist 3.56109 0 0
lhand -9.24885 3.64816 -0.003155
lfingers 7.12502 0 0
lthumb 12.0725 27.9391 -0.00309626
rclavicle 1.14088e-14 7.94192e-15 0
rhumerus -33.8284 -4.92162 -75.4839
rradius 32.7486 -0 0
rwrist 8.81155 0 0
rhand -22.5643 -16.0072 0.0112414
rfingers 7.12502 0 0
rthumb -0.7032 -41.1031 0.0112994
40
root 5.94156 16.898 -28.0828 8.19023 -1.59436 -2.02955
lfemur -16.6145 1.32949 -16.4878
ltibia 28.3722 -0 0
lfoot -30.5404 3.53506 0.00495011
ltoes 31.3005 -0 0
rfemur -13.8321 5.82116 16.34
rtibia 25.513 -0 0
rfoot -23.1088 -15.3924 0.0227893
rtoes 13.3426 -0 0
lowerback -4.26625 2.16203 -1.32908
upperback -1.66123 2.92929 1.142
thorax 0.543215 1.4778 2.08139
lowerneck -8.05433 -1.42981 1.99846
upperneck -2.09723 -2.1039 0.127284
head 0.663379 -1.06003 -0.366108
lclavicle 7.91057e-15 7.49702e-15 0
lhumerus -34.9009 -11.883 85.1956
lradius 30.86 -0 0
lwrist 3.67555 0 0
lhand -9.42488 3.66162 -0.00330908
lfingers 7.12502 0 0
lthumb 12.2744 28.3758 -0.00324334
rclavicle 7.91057e-15 7.49702e-15 0
rhumerus -34.3883 -4.93483 -76.7043
rradius 33.3068 -0 0
rwrist 8.96782 0 0
rhand -22.9692 -16.2877 0.0117327
rfingers 7.12502 0 0
rthumb -0.723753 -41.8047 0.0117556
41
root 5.93441 16.8982 -28.0835 8.52435 -1.63906 -2.09775
lfemur -17.2898 1.38918 -17.1259
ltibia 29.4774 -0 0
lfoot -31.6508 3.65021 0.00201937
ltoes 32.4378 -0 0
rfemur -14.3687 6.04676 16.9811
rtibia 26.4669 -0 0
rfoot -23.9776 -16.0345 0.0240957
rtoes 13.6852 -0 0
lowerback -4.46068 2.23459 -1.32586
upperback -1.71666 3.02572 1.14658
thorax 0.596455 1.52557 2.0917
lowerneck -8.3656 -1.4792 2.09069
upperneck -2.19944 -2.17897 0.167597
head 0.68269 -1.09759 -0.371321
lclavicle 4.41231e-15 7.05212e-15 0
lhumerus -36.2426 -11.9547 87.8191
lradius 32.1397 -0 0
lwrist 3.88385 0 0
lhand -9.80879 3.75454 -0.00342771
lfingers 7.12502 0 0
lthumb 12.7387 29.4144 -0.00334872
rclavicle 4.41231e-15 7.05212e-15 0
rhumerus -35.6688 -4.97142 -79.268
rradius 34.5589 -0 0
rwrist 9.31927 0 0
rhand -23.8549 -16.9299 0.0121824
rfingers 7.12502 0 0
rthumb -0.750043 -43.3751 0.0121151
42
root 5.92727 16.8985 -28.0841 9.07249 -1.72412 -2.21457
lfemur -18.3898 1.47463 -18.1873
ltibia 31.2798 -0 0
lfoot -33.5081 3.86338 6.55741e-05
ltoes 34.3234 -0 0
rfemur -15.2708 6.39985 18.0404
rtibia 28.0652 -0 0
rfoot -25.4268 -17.0608 0.0253658
rtoes 14.3343 -0 0
lowerback -4.76834 2.3616 -1.34955
upperback -1.81403 3.19581 1.17184
thorax 0.667001 1.61034 2.14239
lowerneck -8.88393 -1.56441 2.2401
upperneck -2.35813 -2.30748 0.218857
head 0.718396 -1.16204 -0.384516
lclavicle 9.14057e-16 6.60722e-15 0
lhumerus -38.4431 -12.0042 91.8054
lradius 34.2044 -0 0
lwrist 4.20593 0 0
lhand -10.4408 3.94101 -0.00350418
lfingers 7.12502 0 0
lthumb 13.5146 31.1536 -0.00340224
rclavicle 9.14057e-16 6.60722e-15 0
rhumerus -37.7794 -5.01652 -83.1744
rradius 36.6116 -0 0
rwrist 9.90339 0 0
rhand -25.3057 -18.0007 0.0125831
rfingers 7.12502 0 0
rthumb -0.783142 -45.9304 0.0123448
43
root 5.92012 16.8987 -28.0848 10.2066 -1.52826 -1.97555
lfemur -20.438 1.339 -19.8065
ltibia 33.9 0 0
lfoot -35.2116 4.20509 0
ltoes 35.2088 0 0
rfemur -16.9253 6.16566 19.4656
rtibia 30.3778 0 0
rfoot -27.1417 -18.6675 0
rtoes 10.5318 0 0
lowerback -5.78587 2.27459 -0.104052
upperback -1.73151 3.03465 0.0764956
thorax 1.44849 1.51594 0.346495
lowerneck -9.50682 -1.51554 2.97584
upperneck -3.00629 -2.31202 1.26983
head 0.621946 -1.159 -0.177483
lclavicle -2.5842e-15 6.16232e-15 0
lhumerus -41.4063 -13.1444 96.3548
lradius 40.4448 0 0
lwrist 6.71755 0 0
lhand -11.8725 3.35808 0
lfingers 7.12502 0 0
lthumb 14.1799 32.8541 0
rclavicle -2.5842e-15 6.16232e-15 0
rhumerus -40.1835 -5.00997 -89.8855
rradius 38.9467 0 0
rwrist 10.8337 0 0
rhand -26.6893 -20.4074 0
rfingers 7.12502 0 0
rthumb -0.120043 -50.3871 0
44
root 5.91829 16.8925 -28.0881 11.0891 -1.51726 -2.17147
lfemur -22.5233 1.95411 -21.3763
ltibia 37.1762 -0 0
lfoot -37.4619 3.82327 -0.080545
ltoes 37.9968 -0 0
rfemur -18.3805 6.43615 21.1237
rtibia 32.8124 -0 0
rfoot -29.3002 -20.1803 0.000321278
rtoes 10.7378 -0 0
lowerback -6.20615 2.45547 0.00814921
upperback -1.85902 3.26902 0.0583239
thorax 1.55927 1.63351 0.279941
lowerneck -10.309 -1.65972 3.1824
upperneck -3.34766 -2.52322 1.41591
head 0.648784 -1.26483 -0.173042
lclavicle -1.38084e-15 6.18125e-15 0
lhumerus -44.5439 -13.035 100.78
lradius 43.6096 -0 0
lwrist 7.2983 0 0
lhand -12.8534 3.59855 -0.000121606
lfingers 7.12502 0 0
lthumb 15.3564 35.3809 -8.91957e-05
rclavicle -1.38084e-15 6.18125e-15 0
rhumerus -43.2183 -4.80904 -94.4169
rradius 42.0014 -0 0
rwrist 11.607 0 0
rhand -28.7841 -22.1446 -0.00106435
rfingers 7.12502 0 0
rthumb -0.0909864 -54.0411 -0.00100966
45
root 5.91646 16.8864 -28.0914 11.7302 -1.49904 -2.31263
lfemur -24.0477 2.43235 -22.507
ltibia 39.5296 -0 0
lfoot -39.0146 3.48807 -0.142046
ltoes 39.9608 -0 0
rfemur -19.4329 6.61447 22.3161
rtibia 34.5376 -0 0
rfoot -30.8313 -21.2696 0.000623337
rtoes 10.824 -0 0
lowerback -6.50911 2.58377 0.103189
upperback -1.94882 3.4345 0.0386751
thorax 1.64253 1.71657 0.217283
lowerneck -10.8885 -1.76385 3.33006
upperneck -3.60297 -2.67546 1.52851
head 0.665769 -1.34111 -0.167329
lclavicle -1.77486e-16 6.20018e-15 0
lhumerus -46.7274 -12.9375 103.514
lradius 45.8318 -0 0
lwrist 7.7257 0 0
lhand -13.5634 3.76474 -0.000243321
lfingers 7.12502 0 0
lthumb 16.2015 37.1561 -0.000179161
rclavicle -1.77486e-16 6.20018e-15 0
rhumerus -45.3315 -4.65578 -97.2714
rradius 44.1383 -0 0
rwrist 12.157 0 0
rhand -30.2724 -23.3962 -0.00188088
rfingers 7.12502 0 0
rthumb -0.0678098 -56.5463 -0.00174936
